<svg width="49" height="49" viewBox="0 0 49 49" fill="none" xmlns="http://www.w3.org/2000/svg">
<g id="barcode-solid 1">
<path id="Vector" d="M2.29688 3.0625C1.02402 3.0625 0 4.08652 0 5.35938V43.6406C0 44.9135 1.02402 45.9375 2.29688 45.9375H3.82812C5.10098 45.9375 6.125 44.9135 6.125 43.6406V5.35938C6.125 4.08652 5.10098 3.0625 3.82812 3.0625H2.29688ZM10.7188 3.0625C9.87656 3.0625 9.1875 3.75156 9.1875 4.59375V44.4062C9.1875 45.2484 9.87656 45.9375 10.7188 45.9375C11.5609 45.9375 12.25 45.2484 12.25 44.4062V4.59375C12.25 3.75156 11.5609 3.0625 10.7188 3.0625ZM17.6094 3.0625C16.3365 3.0625 15.3125 4.08652 15.3125 5.35938V43.6406C15.3125 44.9135 16.3365 45.9375 17.6094 45.9375H19.1406C20.4135 45.9375 21.4375 44.9135 21.4375 43.6406V5.35938C21.4375 4.08652 20.4135 3.0625 19.1406 3.0625H17.6094ZM26.7969 3.0625C25.524 3.0625 24.5 4.08652 24.5 5.35938V43.6406C24.5 44.9135 25.524 45.9375 26.7969 45.9375H28.3281C29.601 45.9375 30.625 44.9135 30.625 43.6406V5.35938C30.625 4.08652 29.601 3.0625 28.3281 3.0625H26.7969ZM42.875 5.35938V43.6406C42.875 44.9135 43.899 45.9375 45.1719 45.9375H46.7031C47.976 45.9375 49 44.9135 49 43.6406V5.35938C49 4.08652 47.976 3.0625 46.7031 3.0625H45.1719C43.899 3.0625 42.875 4.08652 42.875 5.35938ZM36.75 4.59375V44.4062C36.75 45.2484 37.4391 45.9375 38.2812 45.9375C39.1234 45.9375 39.8125 45.2484 39.8125 44.4062V4.59375C39.8125 3.75156 39.1234 3.0625 38.2812 3.0625C37.4391 3.0625 36.75 3.75156 36.75 4.59375Z" fill="#1F395E"/>
</g>
</svg>
