<svg width="66" height="66" viewBox="0 0 66 66" fill="none" xmlns="http://www.w3.org/2000/svg">
<g id="people_team_regular_icon_202805 1">
<path id="Vector" d="M41.1667 26.4472C42.8592 26.4472 44.2538 27.7211 44.4446 29.3623L44.4667 29.7472V44.1596C44.4667 50.5097 39.319 55.6577 32.9686 55.6577C26.83 55.6577 21.815 50.8473 21.4875 44.7902L21.4705 44.1596V29.7472C21.4705 28.0548 22.7444 26.66 24.3856 26.4694L24.7705 26.4472H41.1667ZM41.1667 29.7472H24.7705V44.1596C24.7705 48.6872 28.4409 52.3577 32.9686 52.3577C37.3152 52.3577 40.8717 48.9749 41.1492 44.6984L41.1667 44.1596V29.7472ZM19.0546 26.4452C18.586 27.2545 18.2844 28.1726 18.1969 29.1523L18.1705 29.7472H9.95576V42.0862C9.95576 45.4693 12.6983 48.212 16.0815 48.212C16.9764 48.212 17.8266 48.0199 18.5931 47.675C18.8546 48.7594 19.2393 49.7993 19.7292 50.7774C18.6084 51.2513 17.3754 51.512 16.0815 51.512C11.0617 51.512 6.95844 47.5879 6.67173 42.6399L6.65576 42.0862V29.7472C6.65576 28.0548 7.92969 26.66 9.57088 26.4694L9.95576 26.4472L19.0546 26.4452ZM46.8826 26.4452L56.0711 26.4472C57.7634 26.4472 59.1583 27.7211 59.3487 29.3623L59.3711 29.7472V42.0888C59.3711 47.2929 55.1521 51.512 49.948 51.512C48.625 51.512 47.3657 51.2394 46.2229 50.747C46.712 49.7649 47.0941 48.7238 47.3561 47.6358C48.1429 48.006 49.0213 48.212 49.948 48.212C53.1684 48.212 55.8084 45.7254 56.0526 42.5673L56.0711 42.0888V29.7472H47.7667L47.7485 29.2546C47.6736 28.2365 47.3674 27.2827 46.8826 26.4452ZM32.9624 9.8645C37.0219 9.8645 40.3126 13.1553 40.3126 17.2148C40.3126 21.2743 37.0219 24.5651 32.9624 24.5651C28.903 24.5651 25.6122 21.2743 25.6122 17.2148C25.6122 13.1553 28.903 9.8645 32.9624 9.8645ZM49.42 11.9373C52.9071 11.9373 55.7339 14.7641 55.7339 18.2512C55.7339 21.7383 52.9071 24.5651 49.42 24.5651C45.9332 24.5651 43.1061 21.7383 43.1061 18.2512C43.1061 14.7641 45.9332 11.9373 49.42 11.9373ZM16.5568 11.9373C20.0439 11.9373 22.8707 14.7641 22.8707 18.2512C22.8707 21.7383 20.0439 24.5651 16.5568 24.5651C13.0698 24.5651 10.243 21.7383 10.243 18.2512C10.243 14.7641 13.0698 11.9373 16.5568 11.9373ZM32.9624 13.1645C30.7255 13.1645 28.9122 14.9779 28.9122 17.2148C28.9122 19.4517 30.7255 21.2651 32.9624 21.2651C35.1993 21.2651 37.0126 19.4517 37.0126 17.2148C37.0126 14.9779 35.1993 13.1645 32.9624 13.1645ZM49.42 15.2373C47.7554 15.2373 46.4061 16.5867 46.4061 18.2512C46.4061 19.9157 47.7554 21.2651 49.42 21.2651C51.0845 21.2651 52.4339 19.9157 52.4339 18.2512C52.4339 16.5867 51.0845 15.2373 49.42 15.2373ZM16.5568 15.2373C14.8923 15.2373 13.543 16.5867 13.543 18.2512C13.543 19.9157 14.8923 21.2651 16.5568 21.2651C18.2213 21.2651 19.5707 19.9157 19.5707 18.2512C19.5707 16.5867 18.2213 15.2373 16.5568 15.2373Z" fill="#875FA3"/>
</g>
</svg>
