<svg width="46" height="62" viewBox="0 0 46 62" fill="none" xmlns="http://www.w3.org/2000/svg">
<g clip-path="url(#clip0_168_20)">
<path d="M1.67708 0.266327C2.69531 -0.205939 3.89323 -0.0364074 4.74375 0.702264L9.58333 4.89211L14.4229 0.702264C15.501 -0.230157 17.0943 -0.230157 18.1604 0.702264L23 4.89211L27.8396 0.702264C28.9177 -0.230157 30.5109 -0.230157 31.5771 0.702264L36.4167 4.89211L41.2562 0.702264C42.1068 -0.0364074 43.3047 -0.205939 44.3229 0.266327C45.3411 0.738593 46 1.76789 46 2.90617V59.0937C46 60.232 45.3411 61.2612 44.3229 61.7335C43.3047 62.2058 42.1068 62.0363 41.2562 61.2976L36.4167 57.1077L31.5771 61.2976C30.499 62.23 28.9057 62.23 27.8396 61.2976L23 57.1077L18.1604 61.2976C17.0823 62.23 15.4891 62.23 14.4229 61.2976L9.58333 57.1077L4.74375 61.2976C3.89323 62.0363 2.69531 62.2058 1.67708 61.7335C0.658854 61.2612 0 60.232 0 59.0937V2.90617C0 1.76789 0.658854 0.738593 1.67708 0.266327ZM11.5 17.4374C10.4458 17.4374 9.58333 18.3093 9.58333 19.3749C9.58333 20.4405 10.4458 21.3124 11.5 21.3124H34.5C35.5542 21.3124 36.4167 20.4405 36.4167 19.3749C36.4167 18.3093 35.5542 17.4374 34.5 17.4374H11.5ZM9.58333 42.6249C9.58333 43.6905 10.4458 44.5624 11.5 44.5624H34.5C35.5542 44.5624 36.4167 43.6905 36.4167 42.6249C36.4167 41.5593 35.5542 40.6874 34.5 40.6874H11.5C10.4458 40.6874 9.58333 41.5593 9.58333 42.6249ZM11.5 29.0624C10.4458 29.0624 9.58333 29.9343 9.58333 30.9999C9.58333 32.0655 10.4458 32.9374 11.5 32.9374H34.5C35.5542 32.9374 36.4167 32.0655 36.4167 30.9999C36.4167 29.9343 35.5542 29.0624 34.5 29.0624H11.5Z" fill="#1F395E"/>
</g>
<defs>
<clipPath id="clip0_168_20">
<rect width="46" height="62" fill="white"/>
</clipPath>
</defs>
</svg>
