<svg width="50" height="44" viewBox="0 0 50 44" fill="none" xmlns="http://www.w3.org/2000/svg">
<g id="secure-creditcard_icon-icons.com_56366 1" clip-path="url(#clip0_78_104)">
<g id="Group">
<g id="secure-creditcard-secure-creditcard">
<g id="Group_2">
<g id="Group_3">
<path id="Vector" d="M45.405 34.0765H26.1152V32.2269H45.405C46.9364 32.2269 48.182 30.9725 48.182 29.4309V4.64384C48.182 3.10313 46.9364 1.84961 45.405 1.84961H9.76587C8.23354 1.84961 6.98709 3.10313 6.98709 4.64384V16.164H5.16895V4.64384C5.16895 2.0835 7.23128 0 9.76587 0H45.405C47.9387 0 50.0002 2.0835 50.0002 4.64384V29.4309C50.0002 31.9921 47.9387 34.0765 45.405 34.0765Z" fill="#875FA3"/>
</g>
<g id="Group_4">
<path id="Vector_2" d="M49.0981 7.52661H6.45264V5.677H49.0981V7.52661Z" fill="#875FA3"/>
</g>
<g id="Group_5">
<path id="Vector_3" d="M49.0981 12.4847H6.45264V10.6351H49.0981V12.4847Z" fill="#875FA3"/>
</g>
<g id="Group_6">
<path id="Vector_4" d="M45.492 21.9892H30.2114V20.1396H45.492V21.9892Z" fill="#875FA3"/>
</g>
<g id="Group_7">
<path id="Vector_5" d="M33.6775 26.9491H27.1807V25.0995H33.6775V26.9491Z" fill="#875FA3"/>
</g>
<g id="Group_8">
<path id="Vector_6" d="M45.4921 26.9491H35.1548V25.0995H45.4921V26.9491Z" fill="#875FA3"/>
</g>
</g>
<g id="Group_9">
<g id="Group_10">
<path id="Vector_7" d="M13.6932 44C13.3612 44 13.0638 43.8013 12.9049 43.5051C12.5409 43.0309 10.0454 41.7666 5.94914 40.2548C5.61529 40.1283 5.25575 40.038 4.87403 39.9829C3.42784 39.7815 2.20535 38.8323 1.34508 37.2383C0.380071 35.4466 0.119957 33.3143 0.612685 31.2335C1.12758 29.0588 2.0207 26.9473 2.058 26.8588C3.53703 23.2481 0.566517 21.3705 0.438646 21.2919C0.198972 21.1447 0.0391455 20.8928 0.00629901 20.6101C-0.0265525 20.3265 0.0702347 20.0439 0.269967 19.8433L4.58282 15.5047C4.75331 15.3332 4.98232 15.2374 5.22204 15.2374H22.184C22.4237 15.2374 22.6528 15.3332 22.8232 15.5047L27.1343 19.8433C27.334 20.0439 27.4308 20.3265 27.398 20.6101C27.3651 20.8928 27.2053 21.1447 26.9656 21.2919C26.8422 21.3696 23.8814 23.2833 25.3507 26.8696C25.3844 26.9473 26.2767 29.0597 26.7898 31.2344C27.2843 33.3152 27.0251 35.4484 26.06 37.2383C25.1989 38.8323 23.9773 39.7815 22.5276 39.9838C22.1503 40.0371 21.7907 40.1283 21.4613 40.252C17.3376 41.7729 14.8367 43.0436 14.4931 43.5132C14.3378 43.8212 14.0342 44 13.6932 44ZM2.28614 20.4159C3.68707 21.7426 5.09155 24.2623 3.73147 27.5813C3.71815 27.6129 2.85788 29.6503 2.38116 31.667C1.99406 33.2999 2.19203 34.9625 2.93866 36.3488C3.51926 37.4234 4.25437 38.0295 5.12525 38.1505C5.6393 38.2255 6.12579 38.3483 6.57503 38.518C10.903 40.1157 12.8223 41.1371 13.7092 41.7846C14.6068 41.1326 16.5377 40.1004 20.8354 38.5153C21.2802 38.3473 21.7676 38.2245 22.2781 38.1514C23.1499 38.0295 23.885 37.4226 24.4665 36.3478C25.2131 34.9634 25.4102 33.3016 25.0222 31.6679C24.5464 29.6503 23.6861 27.6129 23.6772 27.5921C22.3136 24.2641 23.7181 21.7426 25.1181 20.4159L21.8103 17.087H5.59581L2.28614 20.4159Z" fill="#875FA3"/>
</g>
<g id="Group_11">
<path id="Vector_8" d="M17.9173 35.489C17.7726 35.489 17.627 35.4538 17.4947 35.3825L13.7021 33.355L9.90774 35.3825C9.60414 35.5477 9.23036 35.5198 8.95074 35.312C8.67107 35.1052 8.53082 34.7548 8.58936 34.408L9.3147 30.1109L6.24743 27.0693C5.99976 26.8236 5.91097 26.456 6.01747 26.121C6.12494 25.786 6.40986 25.5421 6.75171 25.4924L10.9908 24.8683L12.8871 20.9569C13.1926 20.3247 14.2117 20.3247 14.5171 20.9569L16.4134 24.8683L20.6544 25.4924C20.997 25.5421 21.2811 25.7868 21.3885 26.121C21.4951 26.456 21.4063 26.8236 21.1577 27.0701L18.0878 30.1119L18.8131 34.408C18.8717 34.7548 18.7314 35.1052 18.4518 35.312C18.2938 35.4294 18.1056 35.489 17.9173 35.489ZM8.83619 27.0539L10.9261 29.1265C11.14 29.3388 11.2377 29.645 11.187 29.9447L10.6926 32.8736L13.2795 31.4918C13.5441 31.3491 13.8601 31.3491 14.1247 31.4918L16.7099 32.8736L16.2154 29.9447C16.1648 29.645 16.2625 29.3388 16.4773 29.1257L18.5681 27.0539L15.6792 26.6285C15.3836 26.5852 15.127 26.3955 14.9948 26.1228L13.7021 23.4568L12.4095 26.1228C12.2772 26.3955 12.0215 26.5852 11.725 26.6285L8.83619 27.0539Z" fill="#875FA3"/>
</g>
</g>
</g>
</g>
</g>
<defs>
<clipPath id="clip0_78_104">
<rect width="50" height="44" fill="white"/>
</clipPath>
</defs>
</svg>
