<svg width="50" height="50" viewBox="0 0 50 50" fill="none" xmlns="http://www.w3.org/2000/svg">
<g id="tags-solid 1" clip-path="url(#clip0_326_560)">
<path id="Vector" d="M33.6914 3.81836L46.1719 16.4453C51.2891 21.6211 51.2891 29.9414 46.1719 35.1172L35.2344 46.1816C34.3262 47.0996 32.8418 47.1094 31.9238 46.2012C31.0059 45.293 30.9961 43.8086 31.9043 42.8906L42.832 31.8262C46.1426 28.4766 46.1426 23.0957 42.832 19.7461L30.3613 7.11914C29.4531 6.20117 29.4629 4.7168 30.3809 3.80859C31.2988 2.90039 32.7832 2.91016 33.6914 3.82813V3.81836ZM0 22.4121V7.8125C0 5.22461 2.09961 3.125 4.6875 3.125H19.2871C20.9473 3.125 22.5391 3.7793 23.7109 4.95117L40.1172 21.3574C42.5586 23.7988 42.5586 27.7539 40.1172 30.1953L27.0801 43.2324C24.6387 45.6738 20.6836 45.6738 18.2422 43.2324L1.83594 26.8262C0.654297 25.6543 0 24.0723 0 22.4121ZM14.0625 14.0625C14.0625 13.2337 13.7333 12.4388 13.1472 11.8528C12.5612 11.2667 11.7663 10.9375 10.9375 10.9375C10.1087 10.9375 9.31384 11.2667 8.72779 11.8528C8.14174 12.4388 7.8125 13.2337 7.8125 14.0625C7.8125 14.8913 8.14174 15.6862 8.72779 16.2722C9.31384 16.8583 10.1087 17.1875 10.9375 17.1875C11.7663 17.1875 12.5612 16.8583 13.1472 16.2722C13.7333 15.6862 14.0625 14.8913 14.0625 14.0625Z" fill="#1F395E"/>
</g>
<defs>
<clipPath id="clip0_326_560">
<rect width="50" height="50" fill="white"/>
</clipPath>
</defs>
</svg>
