<svg width="40" height="40" viewBox="0 0 40 40" fill="none" xmlns="http://www.w3.org/2000/svg">
<g id="text-document-outlined-symbol_icon-icons.com_57756 1">
<g id="Group">
<g id="Group_2">
<path id="Vector" d="M29.6294 32.5927H10.3701V34.0741H29.6294V32.5927Z" fill="#875FA3"/>
<path id="Vector_2" d="M20.7405 10.3704H10.3701V11.8518H20.7405V10.3704Z" fill="#875FA3"/>
<path id="Vector_3" d="M29.6294 28.1482H10.3701V29.6297H29.6294V28.1482Z" fill="#875FA3"/>
<path id="Vector_4" d="M20.7405 5.9259H10.3701V7.40738H20.7405V5.9259Z" fill="#875FA3"/>
<path id="Vector_5" d="M25.185 0H24.4443H8.88874C7.25908 0 5.92578 1.33329 5.92578 2.96296V37.037C5.92578 38.6666 7.25908 40 8.88874 40H31.111C32.7406 40 34.0739 38.6666 34.0739 37.037V11.1111V10.3704L25.185 0ZM25.185 2.22226L32.148 10.3704H26.6665C25.9258 10.3704 25.185 9.62975 25.185 8.88897V2.22226ZM32.5924 37.037C32.5924 37.7777 31.9999 38.5185 31.111 38.5185H8.88874C8.14804 38.5185 7.40726 37.9259 7.40726 37.037V2.96296C7.40726 2.22226 7.99986 1.48148 8.88874 1.48148H23.7036V8.88889C23.7036 10.5186 25.0369 11.8519 26.6665 11.8519H32.5924V37.037Z" fill="#875FA3"/>
<path id="Vector_6" d="M29.6294 23.7037H10.3701V25.1852H29.6294V23.7037Z" fill="#875FA3"/>
<path id="Vector_7" d="M29.6294 14.8148H10.3701V16.2963H29.6294V14.8148Z" fill="#875FA3"/>
<path id="Vector_8" d="M29.6294 19.2593H10.3701V20.7408H29.6294V19.2593Z" fill="#875FA3"/>
</g>
</g>
</g>
</svg>
