<svg width="58" height="46" viewBox="0 0 58 46" fill="none" xmlns="http://www.w3.org/2000/svg">
<g clip-path="url(#clip0_168_12)">
<path d="M4.35 0C1.94844 0 0 1.93164 0 4.3125V33.0625C0 35.4434 1.94844 37.375 4.35 37.375H5.8C5.8 42.1367 9.69688 46 14.5 46C19.3031 46 23.2 42.1367 23.2 37.375H34.8C34.8 42.1367 38.6969 46 43.5 46C48.3031 46 52.2 42.1367 52.2 37.375H55.1C56.7041 37.375 58 36.0902 58 34.5C58 32.9098 56.7041 31.625 55.1 31.625V25.875V23V21.3199C55.1 19.7926 54.4928 18.3281 53.4053 17.25L46.4 10.3051C45.3125 9.22695 43.8353 8.625 42.2947 8.625H37.7V4.3125C37.7 1.93164 35.7516 0 33.35 0H4.35ZM37.7 14.375H42.2947L49.3 21.3199V23H37.7V14.375ZM10.15 37.375C10.15 36.2313 10.6083 35.1344 11.4241 34.3256C12.2399 33.5168 13.3463 33.0625 14.5 33.0625C15.6537 33.0625 16.7601 33.5168 17.5759 34.3256C18.3917 35.1344 18.85 36.2313 18.85 37.375C18.85 38.5187 18.3917 39.6156 17.5759 40.4244C16.7601 41.2332 15.6537 41.6875 14.5 41.6875C13.3463 41.6875 12.2399 41.2332 11.4241 40.4244C10.6083 39.6156 10.15 38.5187 10.15 37.375ZM43.5 33.0625C44.6537 33.0625 45.7601 33.5168 46.5759 34.3256C47.3917 35.1344 47.85 36.2313 47.85 37.375C47.85 38.5187 47.3917 39.6156 46.5759 40.4244C45.7601 41.2332 44.6537 41.6875 43.5 41.6875C42.3463 41.6875 41.2399 41.2332 40.4241 40.4244C39.6083 39.6156 39.15 38.5187 39.15 37.375C39.15 36.2313 39.6083 35.1344 40.4241 34.3256C41.2399 33.5168 42.3463 33.0625 43.5 33.0625Z" fill="#1F395E"/>
</g>
<defs>
<clipPath id="clip0_168_12">
<rect width="58" height="46" fill="white"/>
</clipPath>
</defs>
</svg>
