<svg width="63" height="50" viewBox="0 0 63 50" fill="none" xmlns="http://www.w3.org/2000/svg">
<g id="users-solid 1" clip-path="url(#clip0_326_546)">
<path id="Vector" d="M14.175 0C16.2636 0 18.2666 0.8231 19.7435 2.28823C21.2203 3.75336 22.05 5.7405 22.05 7.8125C22.05 9.8845 21.2203 11.8716 19.7435 13.3368C18.2666 14.8019 16.2636 15.625 14.175 15.625C12.0864 15.625 10.0834 14.8019 8.60653 13.3368C7.12969 11.8716 6.3 9.8845 6.3 7.8125C6.3 5.7405 7.12969 3.75336 8.60653 2.28823C10.0834 0.8231 12.0864 0 14.175 0ZM50.4 0C52.4886 0 54.4916 0.8231 55.9685 2.28823C57.4453 3.75336 58.275 5.7405 58.275 7.8125C58.275 9.8845 57.4453 11.8716 55.9685 13.3368C54.4916 14.8019 52.4886 15.625 50.4 15.625C48.3114 15.625 46.3084 14.8019 44.8315 13.3368C43.3547 11.8716 42.525 9.8845 42.525 7.8125C42.525 5.7405 43.3547 3.75336 44.8315 2.28823C46.3084 0.8231 48.3114 0 50.4 0ZM0 29.1699C0 23.418 4.70531 18.75 10.5033 18.75H14.7066C16.2717 18.75 17.7581 19.0918 19.0969 19.6973C18.9689 20.4004 18.9098 21.1328 18.9098 21.875C18.9098 25.6055 20.5636 28.9551 23.1722 31.25C23.1525 31.25 23.1328 31.25 23.1033 31.25H2.09672C0.945 31.25 0 30.3125 0 29.1699ZM39.8967 31.25C39.877 31.25 39.8573 31.25 39.8278 31.25C42.4463 28.9551 44.0902 25.6055 44.0902 21.875C44.0902 21.1328 44.0213 20.4102 43.9031 19.6973C45.2419 19.082 46.7283 18.75 48.2934 18.75H52.4967C58.2947 18.75 63 23.418 63 29.1699C63 30.3223 62.055 31.25 60.9033 31.25H39.8967ZM22.05 21.875C22.05 19.3886 23.0456 17.004 24.8178 15.2459C26.5901 13.4877 28.9937 12.5 31.5 12.5C34.0063 12.5 36.4099 13.4877 38.1822 15.2459C39.9544 17.004 40.95 19.3886 40.95 21.875C40.95 24.3614 39.9544 26.746 38.1822 28.5041C36.4099 30.2623 34.0063 31.25 31.5 31.25C28.9937 31.25 26.5901 30.2623 24.8178 28.5041C23.0456 26.746 22.05 24.3614 22.05 21.875ZM12.6 47.3926C12.6 40.2051 18.4767 34.375 25.7217 34.375H37.2783C44.5233 34.375 50.4 40.2051 50.4 47.3926C50.4 48.8281 49.2286 50 47.7717 50H15.2283C13.7812 50 12.6 48.8379 12.6 47.3926Z" fill="#1F395E"/>
</g>
<defs>
<clipPath id="clip0_326_546">
<rect width="63" height="50" fill="white"/>
</clipPath>
</defs>
</svg>
