<?xml version="1.0" standalone="no"?>
<!DOCTYPE svg PUBLIC "-//W3C//DTD SVG 20010904//EN"
 "http://www.w3.org/TR/2001/REC-SVG-20010904/DTD/svg10.dtd">
<svg version="1.0" xmlns="http://www.w3.org/2000/svg"
 width="98.000000pt" height="98.000000pt" viewBox="0 0 98.000000 98.000000"
 preserveAspectRatio="xMidYMid meet">
<metadata>
Created by potrace 1.14, written by Peter Selinger 2001-2017
</metadata>
<g transform="translate(0.000000,98.000000) scale(0.100000,-0.100000)"
fill="#000000" stroke="none">
<path d="M385 969 c-16 -6 -39 -12 -49 -14 -33 -8 -119 -56 -163 -92 -114 -94
-181 -253 -170 -403 8 -90 15 -117 55 -195 79 -154 231 -252 405 -261 176 -8
323 62 423 203 60 82 85 158 90 265 6 141 -39 260 -136 358 -95 96 -198 141
-335 145 -49 2 -103 -1 -120 -6z"/>
</g>
</svg>
