<svg width="47" height="54" viewBox="0 0 47 54" fill="none" xmlns="http://www.w3.org/2000/svg">
<g id="check-double-solid 1" clip-path="url(#clip0_326_553)">
<path id="Vector" d="M35.9425 9.13369C37.2538 7.81533 37.2538 5.67432 35.9425 4.35596C34.6311 3.0376 32.5014 3.0376 31.19 4.35596L16.7858 18.8474L10.7639 12.7935C9.45251 11.4751 7.32282 11.4751 6.01144 12.7935C4.70006 14.1118 4.70006 16.2528 6.01144 17.5712L14.4043 26.0087C15.7157 27.3271 17.8454 27.3271 19.1568 26.0087L35.9425 9.13369ZM46.0139 22.6337C47.3253 21.3153 47.3253 19.1743 46.0139 17.856C44.7025 16.5376 42.5728 16.5376 41.2614 17.856L16.7858 42.4724L5.72818 31.3665C4.4168 30.0481 2.28711 30.0481 0.975725 31.3665C-0.335658 32.6849 -0.335658 34.8259 0.975725 36.1442L14.4043 49.6442C15.7157 50.9626 17.8454 50.9626 19.1568 49.6442L46.0139 22.6442V22.6337Z" fill="#1F395E"/>
</g>
<defs>
<clipPath id="clip0_326_553">
<rect width="47" height="54" fill="white"/>
</clipPath>
</defs>
</svg>
