<svg width="49" height="49" viewBox="0 0 49 49" fill="none" xmlns="http://www.w3.org/2000/svg">
<g id="creditcardwithlines_121985 1">
<g id="Group">
<path id="Vector" d="M45.0238 7.74109H3.97624C1.77941 7.74109 0 9.5205 0 11.7173V16.1055V21.5646V37.2828C0 39.4796 1.77941 41.259 3.97624 41.259H45.0238C47.2206 41.259 49 39.4796 49 37.2828V21.5591V16.0999V11.7118C48.9945 9.5205 47.2151 7.74109 45.0238 7.74109ZM3.97624 9.93239H45.0238C45.9739 9.93239 46.8032 10.7013 46.8032 11.7118V15.0345H2.19683V11.7118C2.19683 10.7672 2.97121 9.93239 3.97624 9.93239ZM46.8032 20.4331H2.19683V17.1708H46.8032V20.4331ZM45.0238 39.0566H3.97624C3.02613 39.0566 2.19683 38.2878 2.19683 37.2772V22.63H46.8032V37.2223C46.8032 38.2273 46.0288 39.0566 45.0238 39.0566ZM41.701 28.501C41.701 29.0941 41.2287 29.5664 40.6356 29.5664H29.2451C28.652 29.5664 28.1797 29.0941 28.1797 28.501C28.1797 27.9078 28.652 27.4355 29.2451 27.4355H40.5752C41.1683 27.3751 41.701 27.8474 41.701 28.501ZM41.701 34.3115C41.701 34.9047 41.2287 35.377 40.6356 35.377H34.111C33.5179 35.377 33.0456 34.9047 33.0456 34.3115C33.0456 33.7184 33.5179 33.2461 34.111 33.2461H40.6356C41.1683 33.2461 41.701 33.7184 41.701 34.3115Z" fill="#875FA3"/>
</g>
</g>
</svg>
