<svg width="58" height="51" viewBox="0 0 58 51" fill="none" xmlns="http://www.w3.org/2000/svg">
<path d="M6.44444 3.1875C2.88993 3.1875 0 6.04629 0 9.5625V12.75H58V9.5625C58 6.04629 55.1101 3.1875 51.5556 3.1875H6.44444ZM58 22.3125H0V41.4375C0 44.9537 2.88993 47.8125 6.44444 47.8125H51.5556C55.1101 47.8125 58 44.9537 58 41.4375V22.3125ZM11.2778 35.0625H17.7222C18.6083 35.0625 19.3333 35.7797 19.3333 36.6562C19.3333 37.5328 18.6083 38.25 17.7222 38.25H11.2778C10.3917 38.25 9.66667 37.5328 9.66667 36.6562C9.66667 35.7797 10.3917 35.0625 11.2778 35.0625ZM22.5556 36.6562C22.5556 35.7797 23.2806 35.0625 24.1667 35.0625H37.0556C37.9417 35.0625 38.6667 35.7797 38.6667 36.6562C38.6667 37.5328 37.9417 38.25 37.0556 38.25H24.1667C23.2806 38.25 22.5556 37.5328 22.5556 36.6562Z" fill="#1F395E"/>
</svg>
