<svg width="198" height="59" viewBox="0 0 198 59" fill="none" xmlns="http://www.w3.org/2000/svg">
<g id="cryptera 1" clip-path="url(#clip0_78_412)">
<g id="Clip path group">
<mask id="mask0_78_412" style="mask-type:luminance" maskUnits="userSpaceOnUse" x="0" y="0" width="198" height="59">
<g id="clip0_421_2914">
<path id="Vector" d="M198 0H0V59H198V0Z" fill="white"/>
</g>
</mask>
<g mask="url(#mask0_78_412)">
<g id="Group">
<path id="Vector_2" d="M38.8115 38.8095C36.3627 41.2411 32.9802 42.7458 29.2454 42.7458C21.7929 42.7458 15.7427 36.754 15.7427 29.3738C15.7427 21.9968 21.7929 16.0049 29.2454 16.0049C32.9152 16.0049 36.2431 17.4584 38.6781 19.8113L33.1272 25.3621C32.1115 24.425 30.7435 23.8504 29.2454 23.8504C26.1433 23.8504 23.5884 26.3059 23.5884 29.3738C23.5884 32.4449 26.1433 34.9004 29.2454 34.9004C30.8085 34.9004 32.2346 34.2745 33.264 33.2622L38.8115 38.8095ZM139.72 22.5919V26.5249H147.415V31.6205H139.72V35.9641H148.441V41.3334H133.016V17.2224H148.441V22.5919H139.72ZM109.657 25.2595C109.657 26.7197 109.318 28.0468 108.647 29.2436C107.974 30.4407 106.958 31.3983 105.604 32.1166C104.246 32.8348 102.587 33.1938 100.627 33.1938H97.3097V41.3334H90.6061V17.2224H100.627C102.563 17.2224 104.212 17.5644 105.569 18.2485C106.924 18.9324 107.946 19.8798 108.63 21.087C109.314 22.2943 109.657 23.6862 109.657 25.2595ZM130.519 17.2224V22.5576H124.089V41.3334H117.386V22.5576H111.025V17.2224H130.519ZM56.2336 41.3334L51.4455 32.4414H50.7273V41.3334H44.0238V17.2224H54.5921C56.5278 17.2224 58.1696 17.5575 59.5171 18.2313C60.8612 18.905 61.877 19.8251 62.5611 21.0015C63.245 22.1746 63.587 23.4913 63.587 24.9515C63.587 26.5932 63.1356 28.033 62.236 29.2779C61.3331 30.5193 60.0164 31.4017 58.2857 31.9285L63.7238 41.3334H56.2336ZM163.968 41.3334L159.18 32.4414H158.462V41.3334H151.758V17.2224H162.327C164.263 17.2224 165.904 17.5575 167.252 18.2313C168.597 18.905 169.612 19.8251 170.296 21.0015C170.981 22.1746 171.323 23.4913 171.323 24.9515C171.323 26.5932 170.871 28.033 169.971 29.2779C169.069 30.5193 167.752 31.4017 166.021 31.9285L171.46 41.3334H163.968ZM88.5542 17.2224L80.0722 33.6726V41.3334H73.3344V33.6726L64.8526 17.2224H72.5137L76.7545 26.5249L80.9957 17.2224H88.5542ZM189.62 37.4004H181.069L179.771 41.3334H172.725L181.515 17.2224H189.243L198 41.3334H190.92L189.62 37.4004ZM187.945 32.2705L185.344 24.4728L182.78 32.2705H187.945ZM99.9775 27.8586C101.869 27.8586 102.816 26.9934 102.816 25.2595C102.816 23.5016 101.869 22.626 99.9775 22.626H97.3097V27.8586H99.9775ZM50.7273 27.8586H54.0449C54.9546 27.8586 55.6387 27.6397 56.097 27.2088C56.5518 26.7745 56.7809 26.1486 56.7809 25.3278C56.7809 24.5515 56.545 23.9426 56.0799 23.498C55.6113 23.0535 54.9341 22.8312 54.0449 22.8312H50.7273V27.8586ZM158.462 27.8586H161.78C162.689 27.8586 163.373 27.6397 163.831 27.2088C164.286 26.7745 164.516 26.1486 164.516 25.3278C164.516 24.5515 164.28 23.9426 163.814 23.498C163.346 23.0535 162.669 22.8312 161.78 22.8312H158.462V27.8586Z" fill="#1E77D9"/>
<path id="Vector_3" d="M44.373 44.3711L49.9204 49.9184C44.6261 55.2125 37.3172 58.4888 29.2456 58.4888C13.106 58.4888 0 45.3835 0 29.2445C0 13.1055 13.106 0 29.2456 0C37.3172 0 44.6261 3.27638 49.9204 8.57055L44.373 14.1178C40.4979 10.2429 35.1488 7.84556 29.2456 7.84556C17.4359 7.84556 7.8458 17.4352 7.8458 29.2445C7.8458 41.0537 17.4359 50.64 29.2456 50.64C35.1488 50.64 40.4979 48.2459 44.373 44.3711Z" fill="#1E77D9"/>
<path id="Vector_4" d="M59.2222 11.0295C62.2885 11.0295 64.7743 8.56047 64.7743 5.51476C64.7743 2.46904 62.2885 0 59.2222 0C56.1558 0 53.6699 2.46904 53.6699 5.51476C53.6699 8.56047 56.1558 11.0295 59.2222 11.0295Z" fill="#F33131"/>
</g>
</g>
</g>
</g>
<defs>
<clipPath id="clip0_78_412">
<rect width="198" height="59" fill="white"/>
</clipPath>
</defs>
</svg>
