<svg width="223" height="67" viewBox="0 0 223 67" fill="none" xmlns="http://www.w3.org/2000/svg">
<g id="first-line 1">
<path id="Vector" d="M16.2603 52.1109V18.6109H36.3999V24.2175H21.8585V32.5692H33.6124V38.1526H21.8585V52.1109H16.2603ZM41.0428 23.1706V18.0293H46.641V23.1706H41.0428ZM41.0428 52.1109V26.9859H46.641V52.1109H41.0428ZM53.5994 52.1109V26.9859H58.5472V33.1043L57.9432 32.3133C58.2528 31.4758 58.6633 30.7159 59.1744 30.0335C59.7008 29.3355 60.328 28.7618 61.0559 28.3119C61.6753 27.8932 62.3568 27.5675 63.1001 27.3349C63.8589 27.0868 64.6332 26.9394 65.423 26.8928C66.2128 26.8309 66.9794 26.8618 67.7227 26.9859V32.2203C66.9794 32.0031 66.1199 31.9333 65.1443 32.0109C64.1841 32.0885 63.3168 32.3599 62.5426 32.8251C61.7682 33.2439 61.1332 33.7789 60.6378 34.4303C60.1576 35.0817 59.8016 35.8262 59.5693 36.6637C59.337 37.4857 59.2208 38.3774 59.2208 39.339V52.1109H53.5994ZM80.9345 52.8088C77.8374 52.8088 75.3209 52.1109 73.3851 50.7151C71.4494 49.3192 70.2723 47.3572 69.8542 44.8293L75.5686 43.9453C75.863 45.1861 76.5134 46.1632 77.5198 46.8765C78.5265 47.5899 79.7963 47.9467 81.3294 47.9467C82.6767 47.9467 83.7144 47.6829 84.4421 47.1557C85.1855 46.6128 85.5571 45.8762 85.5571 44.9456C85.5571 44.3718 85.4178 43.9142 85.139 43.573C84.8759 43.2163 84.2873 42.8751 83.3736 42.5494C82.46 42.2237 81.0585 41.8128 79.1691 41.3165C77.0631 40.7581 75.3906 40.1611 74.1516 39.5251C72.9129 38.8737 72.0223 38.106 71.4803 37.222C70.9384 36.338 70.6672 35.2678 70.6672 34.0116C70.6672 32.4451 71.0777 31.0803 71.8984 29.9171C72.7192 28.754 73.8652 27.8621 75.3363 27.2418C76.8075 26.6059 78.5419 26.288 80.5396 26.288C82.4909 26.288 84.2177 26.5904 85.7197 27.1953C87.2374 27.8001 88.4608 28.6609 89.3899 29.7776C90.3191 30.8942 90.8922 32.2048 91.1089 33.7092L85.3945 34.7328C85.2552 33.6626 84.7673 32.8173 83.9311 32.197C83.1105 31.5767 82.0109 31.2277 80.6326 31.1501C79.3163 31.0725 78.2556 31.2743 77.4502 31.755C76.6449 32.2203 76.2422 32.8795 76.2422 33.7324C76.2422 34.2131 76.4048 34.6243 76.73 34.9654C77.0553 35.3066 77.7057 35.6479 78.6813 35.989C79.6725 36.3302 81.1436 36.7489 83.0948 37.2453C85.0926 37.7571 86.6877 38.3465 87.8801 39.0133C89.088 39.6647 89.9553 40.4479 90.4817 41.363C91.0238 42.2781 91.2947 43.3869 91.2947 44.6897C91.2947 47.2177 90.3734 49.2029 88.5305 50.6453C86.7032 52.0876 84.1712 52.8088 80.9345 52.8088ZM111.087 52.1109C109.43 52.4211 107.804 52.5529 106.209 52.5064C104.629 52.4753 103.212 52.1885 101.958 51.6456C100.703 51.0873 99.7509 50.2111 99.1005 49.0168C98.5276 47.9312 98.2256 46.8222 98.1945 45.6901C98.1637 44.5579 98.1481 43.2784 98.1481 41.8515V20.0067H103.723V41.5258C103.723 42.534 103.731 43.418 103.746 44.1779C103.777 44.9378 103.94 45.5583 104.234 46.039C104.792 46.9696 105.682 47.4892 106.905 47.5977C108.129 47.7062 109.523 47.6442 111.087 47.4116V52.1109ZM93.5952 31.3828V26.9859H111.087V31.3828H93.5952Z" fill="#00AFE7"/>
<path id="Vector_2" d="M116.948 52.1109V18.6109H122.546V46.8533H137.32V52.1109H116.948ZM141.719 23.1706V18.0293H147.318V23.1706H141.719ZM141.719 52.1109V26.9859H147.318V52.1109H141.719ZM171.628 52.1109V40.0137C171.628 39.2227 171.574 38.3465 171.465 37.3849C171.357 36.4232 171.101 35.5005 170.699 34.6165C170.312 33.717 169.723 32.9802 168.934 32.4064C168.159 31.8326 167.106 31.5456 165.774 31.5456C165.062 31.5456 164.357 31.6619 163.66 31.8946C162.964 32.1272 162.329 32.5305 161.756 33.1043C161.198 33.6626 160.749 34.4382 160.408 35.4307C160.068 36.4078 159.897 37.664 159.897 39.1994L156.576 37.7803C156.576 35.6401 156.986 33.7013 157.807 31.9644C158.643 30.2274 159.866 28.847 161.477 27.8234C163.087 26.7843 165.07 26.2647 167.424 26.2647C169.282 26.2647 170.815 26.575 172.023 27.1953C173.231 27.8156 174.191 28.6065 174.903 29.5682C175.616 30.5298 176.142 31.5534 176.483 32.639C176.824 33.7246 177.04 34.756 177.133 35.7331C177.242 36.6948 177.296 37.4779 177.296 38.0828V52.1109H171.628ZM154.229 52.1109V26.9859H159.224V34.7793H159.897V52.1109H154.229ZM194.356 52.8088C191.815 52.8088 189.585 52.2583 187.666 51.1571C185.745 50.0559 184.242 48.5283 183.159 46.5741C182.09 44.6199 181.556 42.3711 181.556 39.8276C181.556 37.0824 182.082 34.7017 183.135 32.6855C184.188 30.6538 185.652 29.0796 187.526 27.963C189.399 26.8463 191.568 26.288 194.03 26.288C196.632 26.288 198.838 26.9007 200.65 28.1258C202.478 29.3355 203.833 31.0493 204.716 33.2671C205.598 35.485 205.931 38.0982 205.714 41.1071H200.163V39.0599C200.146 36.3302 199.667 34.3373 198.723 33.081C197.777 31.8248 196.29 31.1967 194.263 31.1967C191.969 31.1967 190.267 31.91 189.152 33.3369C188.037 34.7482 187.48 36.8187 187.48 39.5484C187.48 42.092 188.037 44.0616 189.152 45.4574C190.267 46.8533 191.893 47.5512 194.03 47.5512C195.407 47.5512 196.593 47.2487 197.583 46.6439C198.591 46.0236 199.366 45.1317 199.906 43.9685L205.435 45.6435C204.476 47.9079 202.989 49.6682 200.975 50.9244C198.977 52.1807 196.771 52.8088 194.356 52.8088ZM185.714 41.1071V36.873H202.973V41.1071H185.714Z" fill="#13252C"/>
</g>
</svg>
