<svg width="73" height="58" viewBox="0 0 73 58" fill="none" xmlns="http://www.w3.org/2000/svg">
<g clip-path="url(#clip0_168_8)">
<path d="M4.42529 0.577517C3.23904 -0.35139 1.5167 -0.136155 0.581383 1.04197C-0.353929 2.22009 -0.13721 3.93064 1.04904 4.85955L68.574 57.422C69.7603 58.351 71.4826 58.1357 72.418 56.9576C73.3533 55.7795 73.1365 54.0689 71.9503 53.14L56.5519 41.1549C56.4264 39.8748 55.8333 38.6287 54.8067 37.6771L39.4995 23.7435L36.8304 25.8053L33.8648 23.5056L42.6704 16.6974C43.4689 16.0857 44.6095 16.2217 45.2369 17.0146C45.8642 17.8076 45.7159 18.9404 44.9175 19.5635L42.5336 21.3986L58.3997 35.8873V14.4998H58.3198L57.875 14.2166L49.594 8.949C47.8489 7.83884 45.8072 7.24978 43.7312 7.24978C41.2447 7.24978 38.8265 8.09939 36.8875 9.65134L26.6561 17.8756L23.7133 15.576L33.0436 8.07674C31.7204 7.52166 30.2947 7.23845 28.8461 7.23845C26.6903 7.24978 24.6029 7.88416 22.8122 9.06228L18.7629 11.747L4.42529 0.577517ZM10.9497 19.4388L4.6306 14.4998H-0.000335419V39.8748C-0.000335419 41.8799 1.63076 43.4998 3.64966 43.4998H7.29966C9.31857 43.4998 10.9497 41.8799 10.9497 39.8748V19.4388ZM47.1759 47.7931L14.5997 22.3049V39.8748H17.8162L28.2415 49.3224C30.4772 51.3502 33.9333 51.1916 35.975 48.9713C36.6023 48.2803 37.0244 47.476 37.2411 46.6377L39.1801 48.4049C41.4044 50.4326 44.8719 50.2853 46.9136 48.0763C47.0048 47.9857 47.0847 47.8838 47.1645 47.7818L47.1759 47.7931ZM5.47467 36.2498C5.95868 36.2498 6.42288 36.4407 6.76513 36.7806C7.10739 37.1206 7.29966 37.5816 7.29966 38.0623C7.29966 38.543 7.10739 39.004 6.76513 39.3439C6.42288 39.6838 5.95868 39.8748 5.47467 39.8748C4.99064 39.8748 4.52645 39.6838 4.1842 39.3439C3.84194 39.004 3.64966 38.543 3.64966 38.0623C3.64966 37.5816 3.84194 37.1206 4.1842 36.7806C4.52645 36.4407 4.99064 36.2498 5.47467 36.2498ZM62.0497 14.4998V39.8748C62.0497 41.8799 63.6808 43.4998 65.6997 43.4998H69.3497C71.3686 43.4998 72.9997 41.8799 72.9997 39.8748V14.4998H62.0497ZM65.6997 38.0623C65.6997 37.5816 65.8919 37.1206 66.2342 36.7806C66.5764 36.4407 67.0406 36.2498 67.5247 36.2498C68.0087 36.2498 68.4729 36.4407 68.8151 36.7806C69.1574 37.1206 69.3497 37.5816 69.3497 38.0623C69.3497 38.543 69.1574 39.004 68.8151 39.3439C68.4729 39.6838 68.0087 39.8748 67.5247 39.8748C67.0406 39.8748 66.5764 39.6838 66.2342 39.3439C65.8919 39.004 65.6997 38.543 65.6997 38.0623Z" fill="#1F395E"/>
</g>
<defs>
<clipPath id="clip0_168_8">
<rect width="73" height="58" fill="white"/>
</clipPath>
</defs>
</svg>
