<svg width="58" height="52" viewBox="0 0 58 52" fill="none" xmlns="http://www.w3.org/2000/svg">
<g id="money-check-dollar-solid 1">
<path id="Vector" d="M6.44444 6.5C2.88993 6.5 0 9.41484 0 13V39C0 42.5852 2.88993 45.5 6.44444 45.5H51.5556C55.1101 45.5 58 42.5852 58 39V13C58 9.41484 55.1101 6.5 51.5556 6.5H6.44444ZM27.3889 19.5H49.9444C50.8306 19.5 51.5556 20.2312 51.5556 21.125C51.5556 22.0188 50.8306 22.75 49.9444 22.75H27.3889C26.5028 22.75 25.7778 22.0188 25.7778 21.125C25.7778 20.2312 26.5028 19.5 27.3889 19.5ZM25.7778 30.875C25.7778 29.9813 26.5028 29.25 27.3889 29.25H49.9444C50.8306 29.25 51.5556 29.9813 51.5556 30.875C51.5556 31.7687 50.8306 32.5 49.9444 32.5H27.3889C26.5028 32.5 25.7778 31.7687 25.7778 30.875ZM16.5139 15.4375V16.8492C17.2691 16.9711 17.984 17.1438 18.6385 17.3266C19.716 17.6109 20.3503 18.7281 20.0684 19.8148C19.7865 20.9016 18.6788 21.5414 17.6014 21.257C16.4938 20.9625 15.4264 20.7492 14.4597 20.7289C13.6642 20.7188 12.8486 20.9117 12.2948 21.2367C11.8115 21.5211 11.6705 21.8055 11.6705 22.1812C11.6705 22.3641 11.6806 22.5367 12.2042 22.8617C12.8385 23.2477 13.7649 23.5422 15.0538 23.9281L15.1243 23.9484C16.2521 24.2938 17.7021 24.7305 18.8601 25.4719C20.159 26.2945 21.3069 27.6352 21.3372 29.6969C21.3674 31.8195 20.2799 33.3633 18.8399 34.2672C18.1149 34.7242 17.3094 35.0086 16.5038 35.1812V36.5625C16.5038 37.6797 15.5976 38.5938 14.4899 38.5938C13.3823 38.5938 12.476 37.6797 12.476 36.5625V35.0797C11.4389 34.8562 10.4622 34.5211 9.63646 34.2266C9.425 34.1555 9.22361 34.0844 9.02222 34.0133C7.96493 33.6578 7.40104 32.5102 7.75347 31.4438C8.1059 30.3773 9.24375 29.8086 10.301 30.1641C10.5528 30.2453 10.7944 30.3367 11.026 30.4078C12.3955 30.875 13.4427 31.2305 14.5604 31.2711C15.4264 31.3016 16.2219 31.1086 16.7153 30.7938C17.1281 30.5398 17.3194 30.2352 17.3094 29.7273C17.3094 29.4328 17.2288 29.2195 16.7153 28.8945C16.0809 28.4883 15.1646 28.1937 13.8958 27.8078L13.7247 27.757C12.6271 27.4219 11.2476 27.0055 10.1399 26.3352C8.86111 25.5531 7.66285 24.2531 7.65278 22.2016C7.64271 20.0586 8.84097 18.5758 10.2507 17.743C10.9455 17.3266 11.7108 17.0523 12.4861 16.8797V15.4375C12.4861 14.3203 13.3924 13.4062 14.5 13.4062C15.6076 13.4062 16.5139 14.3203 16.5139 15.4375Z" fill="#1F395E"/>
</g>
</svg>
