<svg width="64" height="57" viewBox="0 0 64 57" fill="none" xmlns="http://www.w3.org/2000/svg">
<path d="M7.11111 7.125C3.18889 7.125 0 10.3201 0 14.25V42.75C0 46.6799 3.18889 49.875 7.11111 49.875H56.8889C60.8111 49.875 64 46.6799 64 42.75V14.25C64 10.3201 60.8111 7.125 56.8889 7.125H7.11111ZM12.4444 24.9375H30.2222C31.2 24.9375 32 25.7391 32 26.7188C32 27.6984 31.2 28.5 30.2222 28.5H12.4444C11.4667 28.5 10.6667 27.6984 10.6667 26.7188C10.6667 25.7391 11.4667 24.9375 12.4444 24.9375ZM10.6667 37.4062C10.6667 36.4266 11.4667 35.625 12.4444 35.625H51.5556C52.5333 35.625 53.3333 36.4266 53.3333 37.4062C53.3333 38.3859 52.5333 39.1875 51.5556 39.1875H12.4444C11.4667 39.1875 10.6667 38.3859 10.6667 37.4062ZM41.7778 17.8125H50.6667C52.1444 17.8125 53.3333 19.0037 53.3333 20.4844V25.8281C53.3333 27.3088 52.1444 28.5 50.6667 28.5H41.7778C40.3 28.5 39.1111 27.3088 39.1111 25.8281V20.4844C39.1111 19.0037 40.3 17.8125 41.7778 17.8125Z" fill="#1F395E"/>
</svg>
