<svg width="188" height="54" viewBox="0 0 188 54" fill="none" xmlns="http://www.w3.org/2000/svg">
<g id="mr 1" clip-path="url(#clip0_302_37)">
<g id="Clip path group">
<mask id="mask0_302_37" style="mask-type:luminance" maskUnits="userSpaceOnUse" x="0" y="0" width="188" height="54">
<g id="clip0_401_563">
<path id="Vector" d="M187.175 0L0.274902 0L0.274902 54H187.175V0Z" fill="white"/>
</g>
</mask>
<g mask="url(#mask0_302_37)">
<g id="Group">
<path id="Vector_2" fill-rule="evenodd" clip-rule="evenodd" d="M97.1148 7.83105C102.441 7.83105 105.467 12.1519 105.467 16.8329C105.467 20.7938 103.288 25.9548 97.1148 25.9548C92.0308 25.9548 88.8826 21.7539 88.8826 16.9529C88.7616 11.9119 92.0308 7.83105 97.1148 7.83105ZM97.1148 22.9541C99.6568 22.9541 102.078 21.0338 102.078 17.073C102.078 13.9523 100.504 10.8316 96.9938 10.8316C94.0888 10.8316 92.0308 13.1122 92.0308 16.8329C92.0308 19.4735 93.3617 22.9541 97.1148 22.9541Z" fill="#9A554B"/>
<path id="Vector_3" d="M13.1064 25.5944C13.1064 25.2342 13.4694 11.4314 13.4694 11.4314L9.71691 25.5944H6.81167L3.05914 11.4314C3.05914 11.4314 3.42223 24.9943 3.42223 25.5944H0.274902L0.274902 8.31079H4.99597L8.3854 21.1534L11.7747 8.31079H16.4957V25.5944H13.1064Z" fill="#9A554B"/>
<path id="Vector_4" d="M34.5322 25.5944H31.2637V14.312L23.5165 23.5539V25.5944H20.248V8.31079H23.5165V19.4731L31.2637 10.2312V8.31079H34.5322V25.5944Z" fill="#9A554B"/>
<path id="Vector_5" d="M49.1787 17.7927V25.5944H52.4471V8.31079H49.1787V14.7921H41.6736V8.31079H38.4053V25.5944H41.6736V17.7927H49.1787Z" fill="#9A554B"/>
<path id="Vector_6" d="M70.2418 8.31079V25.5944H66.9739V11.3114H59.7102V25.5944H56.4419V8.31079H70.2418Z" fill="#9A554B"/>
<path id="Vector_7" fill-rule="evenodd" clip-rule="evenodd" d="M87.0681 14.072C87.0681 10.4712 84.5262 8.31079 80.894 8.31079H74.2358V25.5944H77.384V19.7131H80.652C85.2521 19.7131 87.0681 17.1925 87.0681 14.072ZM80.289 17.0726H77.384V11.0713H79.9261C81.4989 11.0713 83.799 11.1913 83.799 13.9519C83.799 15.9923 82.5891 17.0726 80.289 17.0726Z" fill="#9A554B"/>
<path id="Vector_8" d="M121.811 11.4314C121.811 11.4314 121.448 25.2342 121.448 25.5944H124.837V8.31079H120.116L116.727 21.1534L113.337 8.31079H108.616V25.5944H111.763C111.763 24.9943 111.4 11.4314 111.4 11.4314L115.153 25.5944H118.058L121.811 11.4314Z" fill="#9A554B"/>
<path id="Vector_9" d="M135.006 11.1914V25.4742H131.737V11.1914H127.016V8.31079H139.848V11.1914H135.006Z" fill="#9A554B"/>
<path id="Vector_10" fill-rule="evenodd" clip-rule="evenodd" d="M158.245 16.833C158.245 12.1521 155.22 7.83118 149.893 7.83118C144.93 7.83118 141.54 11.912 141.662 16.953C141.662 21.7541 144.81 25.9548 149.893 25.9548C156.066 25.9548 158.245 20.7938 158.245 16.833ZM154.977 17.073C154.977 21.0339 152.435 22.9543 149.893 22.9543C146.261 22.9543 144.93 19.4735 144.93 16.833C144.93 13.1122 146.989 10.8318 149.893 10.8318C153.404 10.8318 154.977 13.9524 154.977 17.073Z" fill="#9A554B"/>
<path id="Vector_11" fill-rule="evenodd" clip-rule="evenodd" d="M168.172 8.31079C171.805 8.31079 174.346 10.4712 174.346 14.072C174.346 17.1925 172.53 19.7131 167.93 19.7131H164.663V25.5944H161.393V8.31079H168.172ZM164.663 17.0726H167.567C169.867 17.0726 171.078 15.9923 171.078 13.9519C171.078 11.1913 168.778 11.0713 167.205 11.0713H164.663V17.0726Z" fill="#9A554B"/>
<path id="Vector_12" d="M187.175 11.1912V8.19055H176.765V25.4741H180.034V11.1912H187.175Z" fill="#9A554B"/>
<path id="Vector_13" fill-rule="evenodd" clip-rule="evenodd" d="M6.93266 29.7946C10.5642 29.7946 13.1064 31.955 13.1064 35.5557C13.1064 38.6764 11.2905 41.197 6.81167 41.197H3.54335L3.54335 47.0781H0.274902L0.274902 29.7946H6.93266ZM3.42223 38.5564H6.32747C8.62739 38.5564 9.83789 37.4762 9.83789 35.4357C9.83789 32.6751 7.53798 32.5551 5.96438 32.5551H3.42223V38.5564Z" fill="#9A554B"/>
<path id="Vector_14" fill-rule="evenodd" clip-rule="evenodd" d="M31.3855 38.3164C31.3855 33.6354 28.3592 29.3146 23.033 29.3146C18.0699 29.3146 14.6805 33.3954 14.8015 38.4364C14.8015 43.2374 17.9488 47.4382 23.033 47.4382C29.2066 47.4382 31.3855 42.2772 31.3855 38.3164ZM27.996 38.5563C27.996 42.5172 25.575 44.4377 23.033 44.4377C19.4014 44.4377 18.0699 41.0769 17.9488 38.3164C17.9488 34.5956 20.0068 32.3151 22.912 32.3151C26.4224 32.3151 27.996 35.4358 27.996 38.5563Z" fill="#9A554B"/>
<path id="Vector_15" d="M49.0585 42.2774C48.4532 43.7176 46.5163 47.5584 41.5533 47.5584C37.4376 47.5584 33.4429 44.7979 33.4429 38.3165C33.4429 34.4757 35.6218 29.4347 41.6743 29.4347C46.1532 29.4347 47.969 32.3153 48.6953 34.7158L45.4269 35.5559C45.1848 33.6356 43.6111 32.3153 41.6743 32.3153C38.8901 32.3153 36.8324 34.4757 36.8324 38.3165C36.8324 40.717 37.8007 44.4378 41.6743 44.4378C43.9743 44.4378 45.4269 42.7574 45.9111 40.9571L49.0585 42.2774Z" fill="#9A554B"/>
<path id="Vector_16" d="M58.9839 47.5584C63.9468 47.5584 65.8839 43.7176 66.4889 42.2774L63.3419 40.9571C62.8579 42.7574 61.4048 44.4378 59.1049 44.4378C55.2313 44.4378 54.2628 40.717 54.2628 38.3165C54.2628 34.4757 56.3208 32.3153 59.1049 32.3153C61.0417 32.3153 62.6159 33.6356 62.8579 35.5559L66.1258 34.7158C65.3999 32.3153 63.5839 29.4347 59.1049 29.4347C53.0524 29.4347 50.8735 34.4757 50.8735 38.3165C50.8735 44.7979 54.8681 47.5584 58.9839 47.5584Z" fill="#9A554B"/>
<path id="Vector_17" d="M83.1944 47.0781H79.9252V35.7958L72.1782 45.0377V47.0781H68.9102V29.7946H72.1782V40.9568L79.9252 31.715V29.7946H83.1944V47.0781Z" fill="#9A554B"/>
<path id="Vector_18" d="M98.0823 47.0781H101.352V29.7946H98.0823V31.715L90.3353 40.9568V29.7946H87.0674V47.0781H90.3353V45.0377L98.0823 35.7958V47.0781Z" fill="#9A554B"/>
</g>
</g>
</g>
</g>
<defs>
<clipPath id="clip0_302_37">
<rect width="188" height="54" fill="white"/>
</clipPath>
</defs>
</svg>
