<svg width="242" height="71" viewBox="0 0 242 71" fill="none" xmlns="http://www.w3.org/2000/svg">
<g id="rec 1">
<path id="Vector" fill-rule="evenodd" clip-rule="evenodd" d="M20.9966 29.3952V24.5698C21.5769 24.6227 22.3446 24.6229 22.782 24.6229C26.0049 24.6229 27.7188 22.5634 27.7188 20.2921C27.7188 18.0209 26.4691 15.9971 22.4965 15.9971H18.6577V29.3509L20.9966 29.3952ZM22.6929 18.1978C24.3086 18.1978 25.1835 18.8869 25.1835 20.2745C25.1835 21.662 24.0854 22.4311 22.6749 22.4311C22.1142 22.4267 21.5541 22.3942 20.9966 22.3338V18.2331H22.6929V18.1978Z" fill="#002E5E"/>
<path id="Vector_2" fill-rule="evenodd" clip-rule="evenodd" d="M29.4238 22.7225C29.3867 23.6417 29.5434 24.5586 29.8837 25.4145C30.2241 26.2705 30.7408 27.0471 31.4007 27.6945C32.0607 28.3421 32.8496 28.8468 33.7174 29.176C34.585 29.5054 35.5124 29.6521 36.4407 29.6071C37.3665 29.64 38.2895 29.485 39.1526 29.1515C40.0159 28.8183 40.8009 28.3137 41.4598 27.6689C42.1187 27.0241 42.6376 26.2525 42.9841 25.4019C43.3307 24.5512 43.4979 23.6394 43.4754 22.7225C43.5097 21.8023 43.3508 20.8853 43.0085 20.0293C42.666 19.1732 42.1478 18.397 41.4864 17.7497C40.825 17.1024 40.035 16.5982 39.1663 16.2692C38.2977 15.94 37.3695 15.7933 36.4407 15.8381C35.516 15.8064 34.5942 15.9623 33.7327 16.2963C32.8709 16.6303 32.0875 17.1351 31.4301 17.7799C30.7729 18.4247 30.2559 19.1959 29.9109 20.0459C29.5659 20.8958 29.4 21.8067 29.4238 22.7225ZM31.9324 22.7225C31.9052 22.1179 32.002 21.5142 32.217 20.9478C32.4319 20.3812 32.7607 19.8638 33.1833 19.4264C33.6057 18.989 34.1133 18.641 34.6756 18.4033C35.2377 18.1654 35.8427 18.0429 36.454 18.0429C37.0653 18.0429 37.6703 18.1654 38.2324 18.4033C38.7944 18.641 39.3022 18.989 39.7248 19.4264C40.1474 19.8638 40.476 20.3812 40.6909 20.9478C40.9059 21.5142 41.0028 22.1179 40.9757 22.7225C40.9757 25.3738 39.2796 27.4155 36.4496 27.4155C35.8398 27.4088 35.2373 27.2813 34.6782 27.0402C34.1189 26.799 33.6142 26.4493 33.194 26.0118C32.7736 25.5743 32.4462 25.0578 32.231 24.4928C32.0159 23.9278 31.9174 23.3259 31.9412 22.7225H31.9324Z" fill="#002E5E"/>
<path id="Vector_3" d="M55.5808 26.3461C54.6605 27.0422 53.5338 27.4181 52.3758 27.4155C51.7494 27.444 51.1236 27.3414 50.5398 27.1146C49.9561 26.8878 49.4271 26.5418 48.9874 26.099C48.5477 25.6563 48.2073 25.1266 47.9881 24.5448C47.769 23.9631 47.6762 23.3421 47.7157 22.7225C47.7157 19.8238 49.6083 18.0299 52.108 18.0299C53.1918 17.9969 54.258 18.3065 55.1523 18.9135L56.2145 17.1461C55.0572 16.2162 53.5974 15.7356 52.108 15.7938C47.6442 15.7938 45.2071 18.8428 45.2071 22.6785C45.154 23.5964 45.2975 24.515 45.6282 25.3741C45.959 26.2332 46.4694 27.0132 47.1259 27.6633C47.7827 28.3135 48.5709 28.8187 49.4385 29.1461C50.3065 29.4735 51.2344 29.6155 52.1615 29.563C53.7432 29.6191 55.2874 29.0789 56.4823 28.0517L55.5896 26.284L55.5808 26.3461Z" fill="#002E5E"/>
<path id="Vector_4" d="M68.204 26.3461C67.2866 27.041 66.1632 27.4169 65.0082 27.4155C64.3809 27.4453 63.7544 27.3436 63.1695 27.1174C62.5845 26.8912 62.0544 26.5455 61.6137 26.1024C61.1732 25.6595 60.8318 25.1296 60.612 24.5472C60.3925 23.9648 60.2996 23.3429 60.3392 22.7225C60.3392 19.8238 62.2317 18.0299 64.7313 18.0299C65.8152 17.9969 66.8814 18.3065 67.7755 18.9135L68.8381 17.1461C67.6806 16.2162 66.2206 15.7356 64.7313 15.7938C60.2677 15.7938 57.8306 18.8428 57.8306 22.6785C57.7775 23.5964 57.921 24.515 58.2516 25.3741C58.5824 26.2332 59.0928 27.0132 59.7495 27.6633C60.4061 28.3135 61.1942 28.8187 62.0621 29.1461C62.9299 29.4735 63.8578 29.6155 64.7849 29.563C66.3665 29.6191 67.9107 29.0789 69.1058 28.0517L68.2131 26.284L68.204 26.3461Z" fill="#002E5E"/>
<path id="Vector_5" d="M73.5604 29.3951L80.6398 19.912V29.3951H83.0055V16.0413H80.9254L73.8551 25.5419V16.0413H71.4893V29.3951H73.5604Z" fill="#002E5E"/>
<path id="Vector_6" d="M88.8262 29.3951L95.8965 19.912V29.3951H98.2712V16.0413H96.191L89.1207 25.5419V16.0413H86.7461V29.3951H88.8262Z" fill="#002E5E"/>
<path id="Vector_7" d="M88.8887 12.7888C89.0227 14.415 90.4331 15.5197 92.7452 15.5197C94.87 15.5197 96.4501 14.4327 96.5037 12.7888H94.2897C94.2094 13.6107 93.6113 13.8935 92.7452 13.8935C91.8794 13.8935 91.2634 13.5312 91.1117 12.7888H88.8887Z" fill="#002E5E"/>
<path id="Vector_8" d="M111.386 26.3372C110.468 27.0321 109.345 27.4078 108.19 27.4066C107.563 27.4351 106.938 27.3326 106.354 27.1058C105.77 26.879 105.241 26.533 104.801 26.0901C104.362 25.6475 104.021 25.118 103.802 24.5362C103.583 23.9544 103.49 23.3333 103.53 22.7136C103.53 19.8148 105.422 18.0209 107.922 18.0209C109.006 17.9881 110.072 18.2977 110.966 18.9047L112.028 17.1371C110.871 16.2075 109.411 15.7268 107.922 15.785C103.458 15.785 101.021 18.834 101.021 22.6696C100.968 23.5875 101.111 24.5061 101.442 25.3652C101.773 26.2243 102.283 27.0044 102.94 27.6545C103.597 28.3046 104.385 28.8098 105.253 29.1373C106.12 29.4647 107.048 29.6067 107.975 29.5542C109.557 29.6103 111.101 29.0701 112.296 28.0429L111.404 26.2753L111.386 26.3372Z" fill="#002E5E"/>
<path id="Vector_9" d="M114.644 29.3862H117.019V22.5016L122.536 29.3862H125.544L119.643 22.2455L125.196 16.0591H122.339L116.983 22.3957V16.0591H114.617V29.4128L114.644 29.3862Z" fill="#002E5E"/>
<path id="Vector_10" d="M129.678 29.3862L136.748 19.9032V29.3862H139.123V16.0325H137.016L129.945 25.533V16.0325H127.571V29.3862H129.678Z" fill="#002E5E"/>
<path id="Vector_11" d="M144.944 29.3862L152.013 19.9032V29.3862H154.387V16.0325H152.307L145.238 25.533V16.0325H142.863V29.3862H144.944Z" fill="#002E5E"/>
<path id="Vector_12" d="M145.006 12.78C145.139 14.4062 146.55 15.511 148.862 15.511C150.987 15.511 152.567 14.4238 152.62 12.78H150.406C150.327 13.6019 149.727 13.8847 148.862 13.8847C147.996 13.8847 147.381 13.5224 147.219 12.78H145.006Z" fill="#002E5E"/>
<path id="Vector_13" d="M153.621 55.2455V41.8917H151.542L144.47 51.3924V41.8917H142.095V55.2455H144.176L151.246 45.7626V55.2455H153.621Z" fill="#002E5E"/>
<path id="Vector_14" d="M149.657 38.6482C149.576 39.4701 148.979 39.7528 148.113 39.7528C147.246 39.7528 146.631 39.3904 146.479 38.6482H144.265C144.399 40.2742 145.809 41.3791 148.121 41.3791C150.245 41.3791 151.826 40.292 151.88 38.6482H149.657Z" fill="#002E5E"/>
<path id="Vector_15" d="M136.025 55.2455H138.373V41.8917H136.025V55.2455Z" fill="#002E5E"/>
<path id="Vector_16" fill-rule="evenodd" clip-rule="evenodd" d="M134.239 50.6854C134.239 48.0339 132.641 46.3724 129.303 46.3724C128.801 46.3734 128.3 46.406 127.803 46.4697V41.8917H125.437V55.2455H128.794C132.24 55.2455 134.248 53.4781 134.248 50.6499L134.239 50.6854ZM131.731 50.7473C131.731 52.3115 130.838 53.0891 129.052 53.0891C128.588 53.0891 128.16 53.0891 127.776 53.036V48.6702C128.211 48.6153 128.649 48.5828 129.088 48.573C130.749 48.573 131.713 49.3155 131.713 50.7473H131.731Z" fill="#002E5E"/>
<path id="Vector_17" d="M119.34 55.2543H121.688V41.9005H119.34V47.3533H113.171V41.9005H110.805V55.2543H113.171V49.5451H119.34V55.2543Z" fill="#002E5E"/>
<path id="Vector_18" d="M104.396 44.0923H108.734V41.9005H97.6465V44.0923H102.021V55.2543H104.396V44.0923Z" fill="#002E5E"/>
<path id="Vector_19" fill-rule="evenodd" clip-rule="evenodd" d="M96.5572 46.1514C96.5572 43.9596 95.3073 41.8563 91.3348 41.8563H87.4961V55.21H89.8707V50.3847C90.451 50.4377 91.2188 50.4378 91.6561 50.4378C94.8789 50.4378 96.593 48.3785 96.593 46.1074L96.5572 46.1514ZM91.54 48.308C92.9459 48.308 94.0411 47.6407 94.0486 46.1666C94.0401 44.7926 93.166 44.11 91.558 44.11H89.8618V48.2105C90.4192 48.271 90.9795 48.3037 91.54 48.308Z" fill="#002E5E"/>
<path id="Vector_20" fill-rule="evenodd" clip-rule="evenodd" d="M84.7552 48.5906C84.7909 47.6699 84.633 46.7517 84.2911 45.8946C83.9493 45.0375 83.4312 44.2603 82.7696 43.6119C82.1081 42.9637 81.3176 42.4587 80.4484 42.129C79.5791 41.7994 78.6502 41.6525 77.7206 41.6973C76.795 41.6655 75.8726 41.8217 75.0103 42.1563C74.148 42.4908 73.3643 42.9965 72.7069 43.6422C72.0494 44.288 71.5326 45.0602 71.1881 45.9112C70.8436 46.7623 70.6788 47.6741 70.7035 48.5906C70.6666 49.5099 70.8231 50.4266 71.1636 51.2828C71.504 52.1387 72.0207 52.9152 72.6806 53.5627C73.3406 54.2102 74.1295 54.7146 74.9973 55.0441C75.8649 55.3732 76.7923 55.5202 77.7206 55.4753C78.6464 55.5081 79.5692 55.3532 80.4324 55.0199C81.2956 54.6865 82.0809 54.182 82.7399 53.5372C83.3986 52.8922 83.9173 52.1207 84.2639 51.27C84.6105 50.4194 84.7778 49.5076 84.7552 48.5906ZM82.2467 48.5906C82.2467 51.242 80.5504 53.2835 77.7115 53.2835C77.1017 53.2769 76.4994 53.1495 75.9402 52.9084C75.3809 52.6673 74.8763 52.3175 74.456 51.88C74.0356 51.4425 73.7082 50.9261 73.493 50.361C73.2778 49.796 73.1793 49.1939 73.2032 48.5906C73.176 47.9861 73.273 47.3825 73.488 46.816C73.7029 46.2494 74.0317 45.732 74.4543 45.2946C74.8767 44.8573 75.3843 44.5092 75.9466 44.2714C76.5087 44.0337 77.1137 43.9111 77.7249 43.9111C78.3363 43.9111 78.9413 44.0337 79.5033 44.2714C80.0655 44.5092 80.573 44.8573 80.9958 45.2946C81.4182 45.732 81.7469 46.2494 81.9619 46.816C82.1769 47.3825 82.2737 47.9861 82.2467 48.5906Z" fill="#002E5E"/>
<path id="Vector_21" d="M65.5884 55.2719H67.963V41.9182H57.2056V55.2719H59.5714V44.11H65.5884V55.2719Z" fill="#002E5E"/>
<path id="Vector_22" d="M46.0824 48.5906C46.0824 45.6918 47.9749 43.8981 50.4746 43.8981C51.5584 43.8651 52.6246 44.1747 53.5189 44.7817L54.5811 43.0141C53.4238 42.0844 51.964 41.6036 50.4746 41.662C46.0111 41.662 43.5738 44.7109 43.5738 48.5552C43.5206 49.4731 43.6642 50.3919 43.995 51.2511C44.3256 52.1102 44.836 52.8902 45.4927 53.5404C46.1493 54.1904 46.9375 54.6957 47.8053 55.023C48.6731 55.3505 49.601 55.4925 50.5281 55.44C52.1099 55.4959 53.654 54.9559 54.849 53.9287L53.9563 52.1612C53.0361 52.8573 51.9095 53.2331 50.7513 53.2304C50.1249 53.259 49.4994 53.1567 48.9153 52.93C48.3316 52.703 47.8026 52.3569 47.363 51.9141C46.9233 51.4713 46.5828 50.9418 46.3636 50.3601C46.1447 49.7783 46.0517 49.1574 46.0913 48.5378L46.0824 48.5906Z" fill="#002E5E"/>
<path id="Vector_23" d="M42.5114 55.272L36.6104 48.1311L42.1632 41.9446H39.3511L33.9948 48.2815V41.9446H31.6201V55.2987H33.9948V48.414L39.5029 55.2987L42.5114 55.272Z" fill="#002E5E"/>
<path id="Vector_24" d="M28.8794 48.573C28.8794 44.4102 26.0672 41.706 22.0946 41.706C20.4224 41.6492 18.7821 42.1678 17.4525 43.1731L18.3452 44.9408C19.258 44.267 20.3668 43.9042 21.5055 43.9069C24.0497 43.9069 25.8977 45.144 26.3619 47.38H20.4253V49.5718H26.4958C26.3363 50.6611 25.7661 51.6501 24.9 52.3405C24.0339 53.0306 22.936 53.3709 21.8269 53.2923C20.5713 53.2912 19.3511 52.8813 18.3541 52.1258L17.3364 54.0877C18.6456 55.0398 20.2387 55.5313 21.8625 55.4841C26.1833 55.4841 28.9151 52.7532 28.9151 48.573H28.8794Z" fill="#002E5E"/>
<path id="Vector_25" fill-rule="evenodd" clip-rule="evenodd" d="M220.111 41.8475C224.083 41.8475 225.333 43.9508 225.333 46.1426L225.368 46.0986C225.368 48.3699 223.655 50.429 220.432 50.429C219.995 50.429 219.226 50.429 218.648 50.3759V55.2014H216.273V41.8475H220.111ZM220.318 48.2992C221.723 48.2992 222.818 47.6312 222.825 46.1555C222.815 44.783 221.941 44.1011 220.335 44.1011H218.638V48.2019C219.195 48.2624 219.756 48.2949 220.318 48.2992Z" fill="#002E5E"/>
<path id="Vector_26" d="M214.211 44.1011H209.863V55.2632H207.46V44.1011H203.086V41.9094H214.211V44.1011Z" fill="#002E5E"/>
<path id="Vector_27" d="M201.034 55.2632H198.676V49.554H192.509V55.2632H190.134V41.9094H192.509V47.3622H198.676V41.9094H201.034V55.2632Z" fill="#002E5E"/>
<path id="Vector_28" d="M187.07 55.2632H179.082V41.9094H186.884V44.1011H181.448V47.4241H186.305V49.6159H181.448V53.0715H187.07V55.2632Z" fill="#002E5E"/>
<path id="Vector_29" d="M176.68 57.6494H174.475V55.2632H164.201V41.9094H166.575V53.0715H172.492V41.9094H174.867V53.0715H176.68V57.6494Z" fill="#002E5E"/>
</g>
</svg>
