<svg width="199" height="58" viewBox="0 0 199 58" fill="none" xmlns="http://www.w3.org/2000/svg">
<g id="tinkoff 1">
<g id="Clip path group">
<mask id="mask0_302_89" style="mask-type:luminance" maskUnits="userSpaceOnUse" x="0" y="0" width="199" height="58">
<g id="clip0_401_64">
<path id="Vector" d="M198.709 0H0.873047V58H198.709V0Z" fill="white"/>
</g>
</mask>
<g mask="url(#mask0_302_89)">
<g id="Group">
<path id="Vector_2" fill-rule="evenodd" clip-rule="evenodd" d="M115.842 30.167C115.842 24.9508 120.267 20.9102 127.643 20.9102C134.98 20.9102 139.405 24.9508 139.405 30.167C139.405 35.383 134.98 39.4236 127.643 39.4236C120.267 39.4236 115.842 35.383 115.842 30.167ZM121.628 30.167C121.628 33.0322 123.973 35.1626 127.643 35.1626C131.274 35.1626 133.656 33.0322 133.656 30.167C133.656 27.3018 131.274 25.208 127.643 25.208C123.973 25.208 121.628 27.3018 121.628 30.167Z" fill="#101414"/>
<path id="Vector_3" fill-rule="evenodd" clip-rule="evenodd" d="M157.673 20.3958V22.159C164.594 22.3059 168.717 25.1344 168.717 30.1301C168.717 35.1258 164.594 37.7339 157.673 37.8808V39.644H152.189V37.8808C145.305 37.7339 141.183 35.1258 141.183 30.1301C141.183 25.1344 145.305 22.3059 152.189 22.159V20.3958H157.673ZM146.742 30.1301C146.742 32.4811 148.406 33.9871 152.189 34.134V25.9425C148.406 26.0895 146.742 27.7792 146.742 30.1301ZM157.673 25.9425V34.134C161.493 33.9871 163.12 32.4811 163.12 30.1301C163.12 27.7792 161.493 26.0895 157.673 25.9425Z" fill="#101414"/>
<path id="Vector_4" fill-rule="evenodd" clip-rule="evenodd" d="M186.966 20.3958V22.159C193.888 22.3059 198.01 25.1344 198.01 30.1301C198.01 35.1258 193.888 37.7339 186.966 37.8808V39.644H181.482V37.8808C174.599 37.7339 170.476 35.1258 170.476 30.1301C170.476 25.1344 174.599 22.3059 181.482 22.159V20.3958H186.966ZM176.036 30.1301C176.036 32.4811 177.7 33.9871 181.482 34.134V25.9425C177.7 26.0895 176.036 27.7792 176.036 30.1301ZM186.966 25.9425V34.134C190.786 33.9871 192.412 32.4811 192.412 30.1301C192.412 27.7792 190.786 26.0895 186.966 25.9425Z" fill="#101414"/>
<path id="Vector_5" d="M15.5011 38.8737H9.82788V26.0538H2.03662V21.3887H23.2924V26.0538H15.5011V38.8737Z" fill="#101414"/>
<path id="Vector_6" d="M31.0457 31.5638L40.5011 21.3887H45.3422V38.8737H39.8581V28.6986L30.4027 38.8737H25.5615V21.3887H31.0457V31.5638Z" fill="#101414"/>
<path id="Vector_7" d="M63.7995 32.3719H54.9871V38.8737H49.5029V21.3887H54.9871V27.7803H63.7995V21.3887H69.2836V38.8737H63.7995V32.3719Z" fill="#101414"/>
<path id="Vector_8" fill-rule="evenodd" clip-rule="evenodd" d="M87.9861 38.4697C86.9271 38.7635 85.7925 38.8737 84.5444 38.8737H73.4248V21.3887H78.9089V26.0905H84.5444C85.8992 26.0225 87.2558 26.1841 88.5535 26.5681C89.801 26.9741 90.8783 27.7638 91.6221 28.8177C92.366 29.8715 92.7361 31.1322 92.676 32.4087C92.7238 33.7871 92.2848 35.1399 91.4316 36.2425C90.5785 37.3449 89.3627 38.1308 87.9861 38.4697ZM83.5988 30.2047H78.9089V34.6494H83.5988C84.5444 34.6494 85.1495 34.6494 85.7547 34.3923C86.6246 34.0249 87.1541 33.2535 87.1541 32.3352C87.1541 31.4536 86.6246 30.7189 85.7168 30.4251C85.0739 30.2047 84.3553 30.2047 83.5988 30.2047Z" fill="#101414"/>
<path id="Vector_9" d="M102.51 32.2617H100.997V38.8737H95.5127V21.3887H100.997V27.9639H102.51L109.128 21.3887H116.012L107.237 29.7639L116.352 38.8737H109.053L102.51 32.2617Z" fill="#101414"/>
</g>
</g>
</g>
</g>
</svg>
