<svg width="220" height="64" viewBox="0 0 220 64" fill="none" xmlns="http://www.w3.org/2000/svg">
<g id="mec 1">
<path id="Vector" d="M203.216 31.4356H198.687V13.9116H203.216V25.02L211.55 13.9116H216.081V31.4356H211.55V20.3272L203.216 31.4356Z" fill="#101414"/>
<path id="Vector_2" d="M201.344 5.12H205.511C205.511 5.95164 205.692 6.60508 205.995 7.13971C206.296 7.67434 206.84 7.97135 207.564 7.97135C208.168 7.97135 208.651 7.67434 209.014 7.13971C209.317 6.60508 209.498 5.95164 209.498 5.12H213.665C213.665 6.90209 213.121 8.32776 212.094 9.45643C211.067 10.5851 209.557 11.1791 207.626 11.1791C205.511 11.1791 203.941 10.6445 202.913 9.51583C201.827 8.38717 201.344 6.96149 201.344 5.12Z" fill="#101414"/>
<path id="Vector_3" fill-rule="evenodd" clip-rule="evenodd" d="M30.3034 29.2376C28.4915 27.5149 27.646 25.317 27.646 22.6438C27.646 19.9707 28.552 17.7728 30.3034 16.0502C32.1152 14.3274 34.4103 13.4364 37.3093 13.4364C40.2085 13.4364 42.5633 14.3274 44.3148 16.0502C46.1272 17.7728 46.9731 19.9707 46.9731 22.6438C46.9731 25.317 46.0663 27.5149 44.3148 29.2376C42.5036 30.9604 40.2085 31.8512 37.3093 31.8512C34.4103 31.8512 32.1152 30.9604 30.3034 29.2376ZM32.4776 22.6438C32.4776 24.129 32.9607 25.317 33.8667 26.2674C34.7727 27.2179 35.9201 27.6932 37.3093 27.6932C38.7588 27.6932 39.9062 27.2179 40.8118 26.3268C41.7187 25.3765 42.2012 24.1884 42.2012 22.7032C42.2012 21.2776 41.7187 20.0301 40.8118 19.1391C39.9062 18.1887 38.6984 17.7134 37.3093 17.7134C35.9201 17.7134 34.7727 18.1887 33.8667 19.0797C32.9607 19.9707 32.4776 21.1588 32.4776 22.6438Z" fill="#101414"/>
<path id="Vector_4" d="M3.18604 31.4358V13.912H7.29293L13.3325 21.2186L19.0701 13.912H23.0562V31.4358H18.5264V20.7433L13.2721 27.2777H13.1513L7.71563 20.7433V31.4358H3.18604Z" fill="#101414"/>
<path id="Vector_5" d="M67.2021 28.8217L65.0885 25.5545C63.76 26.9803 62.2499 27.6932 60.5581 27.6338C59.1699 27.6338 57.9619 27.2179 56.9345 26.2674C55.9082 25.3765 55.4255 24.129 55.4255 22.6438C55.4255 21.1588 55.9692 19.9707 56.9345 19.0203C57.901 18.1293 59.0492 17.654 60.3777 17.654C62.1292 17.654 63.5784 18.248 64.7863 19.3768L66.8997 15.8125C65.2689 14.2086 62.8532 13.4364 59.7135 13.4364C56.9954 13.4364 54.821 14.3274 53.0695 16.1096C51.3181 17.8916 50.4722 20.0301 50.4722 22.6438C50.4722 25.3765 51.3789 27.6338 53.1304 29.297C54.8819 31.0196 57.2367 31.8512 60.1363 31.8512C61.6453 31.8512 62.9751 31.6137 64.2426 31.079C65.4506 30.5445 66.478 29.8317 67.2021 28.8217Z" fill="#101414"/>
<path id="Vector_6" d="M71.4917 31.4362V13.9122H76.0222V31.4362H71.4917Z" fill="#101414"/>
<path id="Vector_7" d="M88.3423 13.9122L81.518 22.2288L89.1882 31.4362H83.2695L76.2026 22.5851L82.6052 13.9122H88.3423Z" fill="#101414"/>
<path id="Vector_8" fill-rule="evenodd" clip-rule="evenodd" d="M90.2744 22.6438C90.2744 25.317 91.1202 27.5149 92.9314 29.2376C94.7439 30.9604 97.0987 31.8512 99.9373 31.8512C102.837 31.8512 105.132 30.9604 106.943 29.2376C108.695 27.5149 109.6 25.317 109.6 22.6438C109.6 19.9707 108.756 17.7728 106.943 16.0502C105.192 14.3274 102.837 13.4364 99.9373 13.4364C97.039 13.4364 94.7439 14.3274 92.9314 16.0502C91.18 17.7728 90.2744 19.9707 90.2744 22.6438ZM96.5551 26.2674C95.6495 25.317 95.1668 24.129 95.1668 22.6438C95.1668 21.1588 95.6495 19.9707 96.5551 19.0797C97.4619 18.1887 98.6088 17.7134 99.9983 17.7134C101.387 17.7134 102.594 18.1887 103.501 19.1391C104.407 20.0301 104.889 21.2776 104.889 22.7032C104.889 24.1884 104.407 25.3765 103.501 26.3268C102.594 27.2179 101.447 27.6932 99.9983 27.6932C98.6088 27.6932 97.4619 27.2179 96.5551 26.2674Z" fill="#101414"/>
<path id="Vector_9" fill-rule="evenodd" clip-rule="evenodd" d="M114.251 31.4348V13.9108C114.554 13.9108 115.157 13.9108 116.003 13.8514C116.433 13.8212 116.878 13.8065 117.331 13.7914C117.769 13.7766 118.215 13.7618 118.66 13.7326C119.121 13.7326 119.566 13.7172 120.003 13.7021C120.426 13.6876 120.842 13.6732 121.257 13.6732C126.632 13.6732 129.351 15.2177 129.351 18.2473C129.351 19.2571 129.048 20.1482 128.384 20.8611C127.72 21.5739 126.935 21.9896 126.028 22.1679V22.2273C128.566 22.8214 129.833 24.1876 129.833 26.2666C129.833 29.7715 126.994 31.5535 121.378 31.5535C120.812 31.5535 119.995 31.5227 118.95 31.4833C118.545 31.4679 118.106 31.4514 117.634 31.4348H114.251ZM121.68 17.2969C120.411 17.2969 119.445 17.2969 118.842 17.3563V21.2174H121.801C122.586 21.2174 123.25 21.0392 123.733 20.6828C124.276 20.3264 124.519 19.8511 124.519 19.1977C124.519 17.9502 123.552 17.2969 121.68 17.2969ZM121.68 23.95H118.842V27.8706C120.653 27.9894 121.619 28.0488 121.861 28.0488C122.888 28.0488 123.673 27.8706 124.217 27.5141C124.76 27.1578 125.063 26.6825 125.063 26.0291C125.002 24.6628 123.914 23.95 121.68 23.95Z" fill="#101414"/>
<path id="Vector_10" d="M150.368 28.8217L148.253 25.5545C146.924 26.9803 145.354 27.6932 143.724 27.6338C142.335 27.6338 141.127 27.2179 140.1 26.2674C139.072 25.3765 138.59 24.129 138.59 22.6438C138.59 21.1588 139.134 19.9707 140.1 19.0203C141.066 18.1293 142.214 17.654 143.542 17.654C145.294 17.654 146.744 18.248 147.952 19.3768L150.066 15.8125C148.434 14.2086 146.018 13.4364 142.878 13.4364C140.159 13.4364 137.986 14.3274 136.235 16.1096C134.484 17.8916 133.638 20.0301 133.638 22.6438C133.638 25.3765 134.543 27.6338 136.294 29.297C138.047 31.0196 140.402 31.8512 143.301 31.8512C144.811 31.8512 146.139 31.6137 147.409 31.079C148.616 30.5445 149.642 29.8317 150.368 28.8217Z" fill="#101414"/>
<path id="Vector_11" d="M154.594 31.4358V13.912H159.125V31.4358H154.594Z" fill="#101414"/>
<path id="Vector_12" d="M171.506 13.912L164.681 22.2284L172.35 31.4358H166.432L159.366 22.5849L165.768 13.912H171.506Z" fill="#101414"/>
<path id="Vector_13" d="M175.614 31.4358H180.143L188.478 20.3275V31.4358H193.008V13.912H188.478L180.143 25.0203V13.912H175.614V31.4358Z" fill="#101414"/>
<path id="Vector_14" d="M6.20572 47.0583V48.2464H12.668C12.5473 49.6128 12.0641 50.6226 11.2186 51.4542C10.3126 52.2264 9.22555 52.6423 7.95722 52.6423C6.26618 52.6423 4.93752 52.2264 4.03156 51.4542L3.36716 52.464C4.39391 53.4145 5.96416 53.8898 8.078 53.8898C9.76914 53.8898 11.1583 53.2956 12.3057 52.1075C13.4533 50.9789 13.9968 49.4939 13.9968 47.7711C13.9968 45.9297 13.4533 44.4446 12.2454 43.3158C11.0375 42.1872 9.52755 41.6527 7.65529 41.6527C6.80967 41.6527 6.02461 41.8308 5.17909 42.1278C4.39391 42.4249 3.72951 42.8408 3.18604 43.3753L3.78997 44.3853C4.75627 43.3753 6.08494 42.9001 7.65529 42.9001C8.98396 42.9001 10.071 43.2566 10.977 43.9694C11.883 44.6822 12.3661 45.7514 12.4869 47.0583H6.20572Z" fill="#101414"/>
<path id="Vector_15" d="M17.3184 53.6527V41.8909H18.7076V53.6527H17.3184Z" fill="#101414"/>
<path id="Vector_16" d="M27.1024 41.8909L21.1836 47.5341L27.5855 53.6527H25.7134L19.4927 47.5935L25.2905 41.8909H27.1024Z" fill="#101414"/>
<path id="Vector_17" d="M39.602 51.9888L38.9379 50.9789C37.9717 52.0481 36.7637 52.5828 35.133 52.5234C33.6835 52.5234 32.5359 52.1075 31.5697 51.2166C30.6638 50.3255 30.1805 49.1969 30.1805 47.7117C30.1805 46.3454 30.6638 45.2169 31.5697 44.2663C32.4755 43.3753 33.6231 42.9001 34.8914 42.9001C36.4617 42.9001 37.7301 43.3753 38.6964 44.207L39.3608 43.1378C38.334 42.1278 36.7637 41.6527 34.7103 41.6527C33.0192 41.6527 31.63 42.2466 30.4825 43.4347C29.3349 44.5633 28.7915 46.0485 28.7915 47.7711C28.7915 49.6126 29.3349 51.0977 30.543 52.2264C31.7508 53.355 33.2607 53.8898 35.133 53.8898C35.9786 53.8898 36.8845 53.7709 37.6696 53.4145C38.4548 53.058 39.1192 52.5828 39.602 51.9888Z" fill="#101414"/>
<path id="Vector_18" d="M51.6813 53.6524V43.138H44.0721V53.6524H42.6826V41.8905H53.0709V53.6524H51.6813Z" fill="#101414"/>
<path id="Vector_19" fill-rule="evenodd" clip-rule="evenodd" d="M56.3921 47.7711C56.3921 49.5533 56.9955 51.0383 58.1436 52.167C59.3515 53.2956 60.8617 53.8898 62.6728 53.8898C64.545 53.8898 66.0551 53.2956 67.2021 52.167C68.3502 51.0383 68.9536 49.5533 68.9536 47.7711C68.9536 45.9891 68.3502 44.5039 67.2021 43.3753C65.9941 42.2466 64.545 41.6527 62.6728 41.6527C60.8007 41.6527 59.2906 42.2466 58.1436 43.3753C56.9955 44.5039 56.3921 45.9891 56.3921 47.7711ZM57.8414 47.7711C57.8414 46.3456 58.324 45.1575 59.2309 44.2663C60.1365 43.3753 61.2833 42.9595 62.6119 42.9001C64.0014 42.9001 65.1495 43.3753 66.0551 44.2663C66.9607 45.2169 67.3837 46.3456 67.3837 47.7711C67.3837 49.1969 66.9607 50.385 66.0551 51.2759C65.2092 52.167 64.0014 52.6423 62.6119 52.6423C61.2236 52.6423 60.0755 52.167 59.1699 51.2759C58.2643 50.3255 57.8414 49.1969 57.8414 47.7711Z" fill="#101414"/>
<path id="Vector_20" fill-rule="evenodd" clip-rule="evenodd" d="M72.3384 58.8204V41.8905H73.7278V43.4349C74.2104 42.9004 74.815 42.4845 75.5999 42.1282C76.3848 41.7717 77.2307 41.5935 78.0754 41.5935C79.7672 41.5935 81.1566 42.1282 82.1219 43.2567C83.1495 44.3261 83.6321 45.8111 83.6321 47.5337C83.6321 49.3753 83.0885 50.8605 81.9416 52.0484C80.7935 53.2365 79.3443 53.8304 77.4721 53.8304C75.8413 53.8304 74.5725 53.4741 73.6669 52.8206V58.8204H72.3384ZM77.7744 42.9598C76.9895 42.9598 76.2033 43.138 75.4794 43.4943C74.7541 43.8508 74.1507 44.2665 73.7875 44.8013V51.5732C74.8748 52.286 76.1436 52.6425 77.5331 52.6425C78.9823 52.6425 80.1292 52.1672 80.9751 51.2762C81.8807 50.3257 82.3036 49.1377 82.3036 47.712C82.3036 46.2862 81.8807 45.1577 81.0958 44.2665C80.2499 43.3755 79.1626 42.9598 77.7744 42.9598Z" fill="#101414"/>
<path id="Vector_21" d="M84.8369 41.8909V43.2571H89.6087V53.6527H90.9982V43.2571H95.7687V41.8909H84.8369Z" fill="#101414"/>
<path id="Vector_22" d="M107.365 53.6527V48.3064H99.5745V53.6527H98.1851V41.8909H99.5745V47.059H107.365V41.8909H108.755V53.6527H107.365Z" fill="#101414"/>
<path id="Vector_23" fill-rule="evenodd" clip-rule="evenodd" d="M112.922 41.8909V53.7121H116.184C117.936 53.7121 119.143 53.2963 119.928 52.5835C120.713 51.8113 121.075 50.8607 121.075 49.7321C121.075 47.1777 119.505 45.8709 116.364 45.8709H114.311V41.8909H112.922ZM114.372 47.1183H116.184C118.479 47.1183 119.687 48.0094 119.687 49.7915C119.687 50.6232 119.444 51.336 118.901 51.7519C118.357 52.1676 117.452 52.4052 116.184 52.4052H114.372V47.1183Z" fill="#101414"/>
<path id="Vector_24" d="M123.854 41.8909V53.6527H125.242V41.8909H123.854Z" fill="#101414"/>
<path id="Vector_25" d="M130.857 53.6523H129.469V41.8906H130.857V51.6921L138.83 41.8906H140.22V53.6523H138.83V43.8508L130.857 53.6523Z" fill="#101414"/>
<path id="Vector_26" d="M131.281 35.772H132.549C132.549 36.4255 132.79 36.9601 133.213 37.4353C133.696 37.8511 134.24 38.0886 135.025 38.0886C135.69 38.0886 136.293 37.8511 136.716 37.4353C137.14 37.0195 137.38 36.4255 137.38 35.772H138.649C138.649 36.7225 138.286 37.5541 137.622 38.1482C136.957 38.8016 136.053 39.0986 135.025 39.0986C133.877 39.0986 132.973 38.8016 132.307 38.1482C131.644 37.5541 131.281 36.7225 131.281 35.772Z" fill="#101414"/>
<path id="Vector_27" d="M150.672 41.8909V53.7121H161.664V56.6822H162.992V52.4052H160.999V41.8909H159.61V52.4052H152.06V41.8909H150.672Z" fill="#101414"/>
<path id="Vector_28" fill-rule="evenodd" clip-rule="evenodd" d="M175.011 51.1572L175.434 52.2264C174.347 53.355 172.897 53.8898 171.025 53.8898C169.153 53.8898 167.583 53.355 166.435 52.2264C165.288 51.0977 164.684 49.6126 164.684 47.7711C164.684 45.9891 165.227 44.5039 166.314 43.3753C167.402 42.2466 168.851 41.6527 170.784 41.6527C172.354 41.6527 173.623 42.1278 174.649 43.1378C175.676 44.088 176.219 45.395 176.219 46.9989V47.0232C176.219 47.4287 176.219 47.777 176.158 48.0681H166.314C166.375 49.4939 166.858 50.6226 167.704 51.3948C168.609 52.2264 169.756 52.5828 171.206 52.5828C172.776 52.5828 174.046 52.1075 175.011 51.1572ZM170.602 42.9595C169.334 42.9595 168.247 43.3158 167.463 44.088C166.676 44.801 166.254 45.8108 166.132 46.9989H174.769C174.769 45.7514 174.347 44.801 173.623 44.088C172.897 43.3158 171.872 42.9595 170.602 42.9595Z" fill="#101414"/>
<path id="Vector_29" d="M188.659 48.3061V53.6524H190.048V41.8905H188.659V47.0586H180.868V41.8905H179.479V53.6524H180.868V48.3061H188.659Z" fill="#101414"/>
<path id="Vector_30" d="M192.465 43.2571V41.8909H203.397V43.2571H198.625V53.6527H197.236V43.2571H192.465Z" fill="#101414"/>
<path id="Vector_31" fill-rule="evenodd" clip-rule="evenodd" d="M205.813 41.8905V58.8204H207.141V52.8206C208.046 53.4741 209.315 53.8304 210.946 53.8304C212.818 53.8304 214.268 53.2365 215.416 52.0484C216.563 50.8605 217.106 49.3753 217.106 47.5337C217.106 45.8111 216.624 44.3261 215.596 43.2567C214.63 42.1282 213.242 41.5935 211.55 41.5935C210.704 41.5935 209.859 41.7717 209.074 42.1282C208.29 42.4845 207.685 42.9004 207.202 43.4349V41.8905H205.813ZM208.893 43.4943C209.617 43.138 210.402 42.9598 211.188 42.9598C212.637 42.9598 213.724 43.3755 214.509 44.2665C215.294 45.1577 215.717 46.2862 215.717 47.712C215.717 49.1377 215.294 50.3257 214.388 51.2762C213.543 52.1672 212.395 52.6425 210.946 52.6425C209.557 52.6425 208.29 52.286 207.202 51.5732V44.8013C207.564 44.2665 208.167 43.8508 208.893 43.4943Z" fill="#101414"/>
</g>
</svg>
